<svg xmlns="http://www.w3.org/2000/svg" version="1.1" xmlns:xlink="http://www.w3.org/1999/xlink" xmlns:svgjs="http://svgjs.com/svgjs" width="1440" height="560" preserveAspectRatio="none" viewBox="0 0 1440 560">
    <g mask="url(&quot;#SvgjsMask6610&quot;)" fill="none">
        <rect width="1440" height="560" x="0" y="0" fill="url(#SvgjsLinearGradient6611)"></rect>
        <path d="M0 0L364.95 0L0 260.46z" fill="rgba(255, 255, 255, .1)"></path>
        <path d="M0 260.46L364.95 0L455.78 0L0 334.57z" fill="rgba(255, 255, 255, .075)"></path>
        <path d="M0 334.57L455.78 0L898.21 0L0 429.08z" fill="rgba(255, 255, 255, .05)"></path>
        <path d="M0 429.08L898.21 0L1167.1 0L0 506.17999999999995z" fill="rgba(255, 255, 255, .025)"></path>
        <path d="M1440 560L1329.57 560L1440 344.23z" fill="rgba(0, 0, 0, .1)"></path>
        <path d="M1440 344.23L1329.57 560L1129.8799999999999 560L1440 233.45000000000002z" fill="rgba(0, 0, 0, .075)"></path>
        <path d="M1440 233.45L1129.88 560L536.3200000000002 560L1440 156.1z" fill="rgba(0, 0, 0, .05)"></path>
        <path d="M1440 156.10000000000002L536.32 560L241.96000000000004 560L1440 98.94000000000003z" fill="rgba(0, 0, 0, .025)"></path>
    </g>
    <defs>
        <mask id="SvgjsMask6610">
            <rect width="1440" height="560" fill="#ffffff"></rect>
        </mask>
        <linearGradient x1="15.28%" y1="-39.29%" x2="84.72%" y2="139.29%" gradientUnits="userSpaceOnUse" id="SvgjsLinearGradient6611">
            <stop stop-color="rgba(1, 29, 66, 1)" offset="0"></stop>
            <stop stop-color="rgba(33, 95, 156, 1)" offset="1"></stop>
        </linearGradient>
    </defs>
</svg>