
        <svg xmlns="http://www.w3.org/2000/svg" xmlns:xlink="http://www.w3.org/1999/xlink" version="1.1" width="3200" height="1200" viewBox="0 0 3200 1200">
			
			<g transform="scale(10) translate(10, 10)">
				<defs id="SvgjsDefs6722"/><g id="SvgjsG6723" featureKey="symbolFeature-0" transform="matrix(1.6,0,0,1.6,-9.600000000000001,0.7520019531249993)"
				fill="#FFF">
				<g xmlns="http://www.w3.org/2000/svg">
					<path d="M6,42.0350037c0,1.7700195,1.4400024,3.210022,3.210022,3.210022h15.4599609v7.0999756H23.710022
					c-0.5499878,0-1,0.4500122-1,1c0,0.5599976,0.4500122,1,1,1h14.5800171c0.5499878,0,1-0.4400024,1-1c0-0.5499878-0.4500122-1-1-1
						h-0.9700317v-7.0999756h15.4700317C54.5599976,45.2450256,56,43.8050232,56,42.0350037v-2.6900024H6V42.0350037z"
					/>
					<path d="M52.7900391,7.6549988H9.210022C7.4400024,7.6549988,6,9.0950012,6,10.8650208v26.4799805h50V10.8650208
						C56,9.0950012,54.5599976,7.6549988,52.7900391,7.6549988z M24.5200195,19.6750183l-10.6500244,5.3400269v0.0599976
						l10.6500244,5.3299561v1.8800049l-12.6300049-6.5100098v-1.4699707l12.6300049-6.5100098V19.6750183z M28.1300049,33.3750305
						h-1.8300171l7.6000366-19.75h1.8599854L28.1300049,33.3750305z M50.1099854,25.8050232l-12.6300049,6.4799805v-1.8800049
						l10.7300415-5.3299561v-0.0599976l-10.7300415-5.3400269v-1.8800049l12.6300049,6.4899902V25.8050232z"
					/>
				</g>
			</g>
			<g id="SvgjsG6724" featureKey="textGroupContainer" transform="matrix(1,0,0,1,100,0)" fill="#FFF">
				<rect y="0" height="1" width="1" opacity="0"/>
				<rect y="95" width="200" height="5"/>
			</g>
			<g id="SvgjsG6725" featureKey="nameFeature-0" transform="matrix(0.9675858875318712,0,0,0.9675858875318712,98.06483007045988,10.607643487062251)" fill="#FFF">
				<path d="M2 40 l0 -32 l3.6 0 l4.2 20 l0.4 0 l4.2 -20 l3.6 0 l0 32 l-4 0 l0 -16 l-2.84 16 l-2.4 0 l-2.76 -16 l0 16 l-4 0 z M24.5 40 l0
					-16.8 c0 -11.16 0 -15.56 6 -15.56 s6 4.4 6 15.56 l0 16.8 l-4 0 l0 -9.2 l-4 0 l0 9.2 l-4 0 z M28.5 27.6 l4 0 l0 -4.4 c0 -10.4 0 -12.36
					-2 -12.36 s-2 1.96 -2 12.36 l0 4.4 z M43 40 l0 -32 l4 0 l0 13.6 l4 0 l0 -13.6 l4 0 l0 32 l-4 0 l0 -15.2 l-4 0 l0 15.2 l-4 0 z M61.5 40 l0
					-32 l3.6 0 l4.2 20 l0.4 0 l4.2 -20 l3.6 0 l0 32 l-4 0 l0 -16 l-2.84 16 l-2.4 0 l-2.76 -16 l0 16 l-4 0 z M83.8 23.16 l0 -15.16 l4 0 l0 15.16
					c0 11.56 0 13.24 2 13.24 s2 -1.68 2 -13.24 l0 -15.16 l4 0 l0 15.16 c0 12.8 0 17.24 -6 17.24 s-6 -4.44 -6 -17.24 z M100.5 11.600000000000001
					l0 -3.6 l12 0 l0 3.6 l-4 0 l0 28.4 l-4 0 l0 -28.4 l-4 0 z M128.7 40 l0 -32 l4 0 l0 12.68 l4 -12.68 l4 0 l-4.8 15.2 l4.8 16.8 l-4 0 l-4 -14 l0
					14 l-4 0 z M145.6 40 l0 -16.8 c0 -11.16 0 -15.56 6 -15.56 s6 4.4 6 15.56 l0 16.8 l-4 0 l0 -9.2 l-4 0 l0 9.2 l-4 0 z M149.6 27.6 l4 0 l0 -4.4 c0
					-10.4 0 -12.36 -2 -12.36 s-2 1.96 -2 12.36 l0 4.4 z M164.1 40 l0 -32 l4 0 l0 28 l5.2 0 l0 4 l-9.2 0 z M178.2 40 l0 -32 l9.2 0 l0 3.2 l-5.2 0 l0
					10.4 l4.4 0 l0 3.2 l-4.4 0 l0 11.2 l5.2 0 l0 4 l-9.2 0 z M192.7 40 l0 -32 l3.6 0 l4.2 20 l0.4 0 l4.2 -20 l3.6 0 l0 32 l-4 0 l0 -16 l-2.84 16 l-2.4
					0 l-2.76 -16 l0 16 l-4 0 z"
				/>
			</g>
			<g id="SvgjsG6726" featureKey="sloganFeature-0" transform="matrix(1.5278838630147764,0,0,1.5278838630147764,98.93048304441398,52.23835300666042)" fill="#FFF">
				<path d="M18.62 5.08 l2.3 0 l-4.76 14.92 l-2.36 0 l-2.88 -8.82 l-2.8 8.82 l-2.36 0 l-5.06 -14.92 l2.24 0 l3.96 11.16 l2.8 -8.8 l-0.76 -2.36 l2.24 0 l3.76
					11.16 z M26 14.02 l0 3.8 l9.2 0 l0 2.18 l-11.38 0 l0 -14.92 l10.5 0 l0 2.2 l-8.32 0 l0 4.52 q0.62 -0.36 1.38 -0.48 q0.56 -0.1 1.44 -0.1 l3.26 0 l0 2.22 l-3.26
					0 q-0.82 0 -1.44 0.1 q-0.76 0.14 -1.38 0.48 z M40.86 7.279999999999999 l0 4.56 q0.62 -0.36 1.4 -0.5 q0.58 -0.1 1.44 -0.1 l2.56 0 q1.04 0 1.63 -0.52 t0.59 -1.54
					q0 -1.9 -2.22 -1.9 l-5.4 0 z M40.86 14.059999999999999 l0 3.76 l5.62 0 q0.66 0 1.26 -0.24 q0.66 -0.24 1.04 -0.7 q0.44 -0.54 0.44 -1.24 q0 -1.2 -0.94 -1.74 q-0.74
					-0.44 -2.02 -0.44 l-2.56 0 q-1.72 0 -2.84 0.6 z M51.38 15.92 q0 1.4 -0.78 2.38 q-0.68 0.86 -1.92 1.3 q-1.1 0.4 -2.42 0.4 l-7.56 0 l0 -14.92 l7.56 0 q1.28 0 2.27
					0.48 t1.55 1.38 q0.58 0.94 0.58 2.22 q0 0.98 -0.35 1.75 t-0.99 1.19 q0.86 0.4 1.42 1.32 q0.64 1.06 0.64 2.5 z M63.38 7.279999999999999 l0 10.54 l3.38 0 q1.4 0 2.52
					-0.72 q1.06 -0.7 1.66 -1.88 t0.6 -2.58 q0 -1.46 -0.57 -2.68 t-1.63 -1.94 q-1.14 -0.74 -2.62 -0.74 l-3.34 0 z M60.06 7.279999999999999 l-0.96 -2.2 l7.6 0 q1.98 0 3.62
					1.02 q1.58 0.98 2.5 2.68 t0.92 3.7 q0 1.5 -0.59 2.97 t-1.63 2.57 q-1 1.08 -2.14 1.54 q-1.1 0.44 -2.62 0.44 l-5.52 0 l0 -12.72 l-1.18 0 z M79.32 14.02 l0 3.8 l9.2 0 l0
					2.18 l-11.38 0 l0 -14.92 l10.5 0 l0 2.2 l-8.32 0 l0 4.52 q0.62 -0.36 1.38 -0.48 q0.56 -0.1 1.44 -0.1 l3.26 0 l0 2.22 l-3.26 0 q-0.82 0 -1.44 0.1 q-0.76 0.14 -1.38 0.48
					z M105.41999999999999 5.08 l-6.26 14.92 l-2.58 0 l-6.16 -14.92 l2.36 0 l5.1 12.48 l5.14 -12.48 l2.4 0 z"
				/>
				</g>
			</g>
		</svg>
	