<svg width="1327" height="483" viewBox="0 0 1327 483" fill="none" xmlns="http://www.w3.org/2000/svg">
<path d="M1196 127L1189.5 118L1228.5 56L1247.5 44L1237.5 61.5L1196 127Z" fill="#17285E"/>
<path d="M1182.5 324L1196 302.5L1248 386L1228.5 398L1182.5 324Z" fill="#17285E"/>
<path d="M1125 397.5L1047 348.5L1065.5 336.5L1144 386L1125 397.5Z" fill="#17285E"/>
<path d="M1046 105.5L1065 93.5L1141 215L1122 227L1046 105.5Z" fill="url(#paint0_linear_16_304)"/>
<path d="M1065 337L1141 215L1122 227L1046.5 348.5L1065 337Z" fill="url(#paint1_linear_16_304)"/>
<rect x="1247.66" y="44" width="93" height="344.99" transform="rotate(31.97 1247.66 44)" fill="#2D6AB3"/>
<rect x="1065" y="93.2412" width="93" height="344.99" transform="rotate(-31.97 1065 93.2412)" fill="#2D6AB3"/>
<rect x="1097" y="100.622" width="46.499" height="298.488" transform="rotate(-31.9724 1097 100.622)" fill="#FFCC01"/>
<rect x="1255.04" y="76" width="46.499" height="298.488" transform="rotate(31.97 1255.04 76)" fill="#FFCC01"/>
<path d="M1255.03 76.0123L1294.48 100.634L1288.02 110.981L1248.57 86.3597L1255.03 76.0123Z" fill="#C8A102"/>
<path d="M1127.47 81.6012L1136.41 76.0202L1195.56 170.794L1186.62 176.375L1127.47 81.6012Z" fill="#C8A102"/>
<path d="M1213.56 219.873L1222.68 214.177L1294.48 329.212L1285.36 334.908L1213.56 219.873Z" fill="#C8A102"/>
<path d="M1289.04 98.9205L1293.72 101.845L1218.2 222.845L1213.51 219.921L1289.04 98.9205Z" fill="#C8A102"/>
<path d="M1064.99 287.393L1113.29 331.118C1098.71 349.05 1050.47 398.826 979.5 392.995C922.721 388.33 900.731 343.127 896.834 321.109C896.855 316.609 895.348 318.102 895.467 292.602C895.581 268.057 910.908 249.174 916.2 242.698C927.598 228.751 961.593 201.41 1006.38 203.618C1051.17 205.827 1078.91 234.124 1087.18 247.996C1087.67 248.498 1089.46 251.206 1092.63 258.021L1084.59 266.484L1064.99 287.393Z" fill="url(#paint2_linear_16_304)"/>
<path d="M1079.72 276.461L1128.02 320.187C1113.43 338.119 1065.2 387.895 994.225 382.064C937.446 377.399 915.457 332.196 911.559 310.178C911.58 305.678 910.073 307.171 910.192 281.671C910.307 257.125 925.633 238.242 930.925 231.767C942.324 217.82 976.318 190.478 1021.11 192.687C1065.9 194.896 1093.63 223.192 1101.9 237.064C1102.4 237.566 1104.19 240.275 1107.36 247.09L1099.32 255.552L1079.72 276.461Z" fill="#2D6AB3"/>
<path d="M1013.55 313.153L1080.37 242.964C1038.6 194.769 979.002 215.46 959.42 232.9C909.713 277.169 933.974 328.482 954.9 344.38C1007.22 384.124 1072.39 346.761 1097.5 322.545L1062.65 290.882C1044.15 312.396 1022.21 314.693 1013.55 313.153Z" fill="#FFCC01"/>
<path d="M1070.83 252.919C1030.65 205.132 973.787 225.633 950.378 241.858C997.129 188.075 1066 216.396 1080.37 242.964L1070.83 252.919Z" fill="#C8A102"/>
<path d="M1003.5 323.606L1013.55 313.153L1026.94 313.215L1044.48 305.694L1053.11 300.337L1063.15 290.884L1097.5 322.544L1087.46 331.498L1053.11 300.337C1033.4 323.046 1011.82 325.312 1003.5 323.606Z" fill="#C8A102"/>
<path d="M1034.81 257.252L984.542 314.018C978.542 313.99 955.701 279.883 978.808 256.99C1001.92 234.098 1026.85 247.881 1034.81 257.252Z" fill="#2D6AB3"/>
<path d="M985.135 294.02C978.182 283.988 982.327 253.007 1015.3 259.661L985.135 294.02Z" fill="black"/>
<path d="M1009.77 266.135C996.983 262.475 989.768 265.542 987.759 267.532C995.009 256.766 1009.14 257.799 1015.3 259.661L1009.77 266.135Z" fill="#7E8068"/>
<path d="M975.524 317.976C948.073 285.848 968.285 261.942 981.822 254.005C959.323 275.1 972.266 301.794 981.549 312.504L975.524 317.976Z" fill="#C8A102"/>
<path d="M777.124 393.88L662.432 394.096L690.307 387.471L758.084 387.042L837.375 385.853C826.566 391.506 781.93 394.401 777.124 393.88Z" fill="#17285E"/>
<path d="M987.133 217.409C997.059 317.067 894.403 370.58 841.834 384.88C814.203 392.397 750.65 388.099 688.842 388.181L691.995 385.291L680.374 229.33L648.896 232.31L622.801 84.8019C707.675 60.3771 782.451 67.1789 809.229 73.6328C864.395 80.0342 977.207 117.751 987.133 217.409Z" fill="#2D6AB3"/>
<path d="M681.363 228.17L687.586 308.01L687.724 309.784L693.547 388.458L663.005 394.415L649.857 237.575L681.363 228.17Z" fill="url(#paint3_linear_16_304)"/>
<path d="M673.734 199.559L656.985 109.879C722.141 92.8666 784.383 98.7536 807.359 103.824C850.304 108.31 940.226 138.354 956.354 222.641C971.282 300.654 864.609 352.653 809.782 362.788C774.223 366.23 721.988 361.226 721.988 361.226L715.594 277.334L709.055 196.458L673.734 199.559Z" fill="#FFCC01"/>
<path d="M656.985 109.879L658.447 114.211C708.961 104.026 762.019 107.309 782.109 110.568C817.713 113.649 897.178 135.126 930.199 196.383C963.22 257.639 916.553 312.507 887.388 332.792C984.155 279.87 959.55 213.166 941.176 182.923C886.205 85.107 728.181 91.7215 656.985 109.879Z" fill="#C8A102"/>
<path d="M649.685 244.755L621.623 246.699L648.896 232.31L680.374 229.33L649.685 244.755Z" fill="#0A589A"/>
<path d="M595.192 98.0263L623.015 84.7805L648.895 232.31L621.623 246.699L595.192 98.0263Z" fill="url(#paint4_linear_16_304)"/>
<path d="M815.947 209.662L811.704 323.614C871.149 310.602 887.939 278.39 888.94 263.81C888.956 210.323 840.309 205.358 815.947 209.662Z" fill="#2D6AB3"/>
<path d="M864.847 252.762C867.134 274.87 845.946 288.687 835.066 292.832L838.317 231.708C857.739 235.13 864.096 247.169 864.847 252.762Z" fill="black"/>
<path d="M838.363 231.582C885.454 240.82 862.47 284.344 834.894 293.303C849.71 285.018 866.089 251.856 837.689 239.695L838.363 231.582Z" fill="#7E8068"/>
<path d="M815.947 209.662L805.209 214.112L798.953 327.332L811.704 323.614L815.947 209.662Z" fill="#C8A102"/>
<path d="M664.004 1L582.004 95.5L606.004 124.258L709.004 69L664.004 1Z" fill="#2D6AB3"/>
<path d="M660.004 31L610.504 91L616.504 98L684.504 63.5L660.004 31Z" fill="#FFCC01"/>
<path d="M651.004 42L672.004 70L684.504 63.5L660.004 31L651.004 42Z" fill="#C8A102"/>
<path d="M644.004 11L664.004 1L582.004 95.5L561.004 106L644.004 11Z" fill="url(#paint5_linear_16_304)"/>
<path d="M585.766 135L561.004 106.5L582.004 95.5L606.004 124.271L585.766 135Z" fill="#17285E"/>
<path d="M715.504 193.603L764.004 237.103C749.504 255.103 701.504 305.103 630.504 299.603C573.704 295.203 551.504 250.103 547.504 228.103C547.504 223.603 546.004 225.103 546.004 199.603C546.004 175.058 561.242 156.103 566.504 149.603C577.837 135.603 611.704 108.103 656.504 110.103C701.304 112.103 729.17 140.27 737.504 154.103C738.004 154.603 739.804 157.303 743.004 164.103L735.004 172.603L715.504 193.603Z" fill="url(#paint6_linear_16_304)"/>
<path d="M730.178 182.603L778.678 226.103C764.178 244.103 716.178 294.103 645.178 288.603C588.378 284.203 566.178 239.103 562.178 217.103C562.178 212.603 560.678 214.103 560.678 188.603C560.678 164.058 575.916 145.103 581.178 138.603C592.511 124.603 626.378 97.1034 671.178 99.1034C715.978 101.103 743.845 129.27 752.178 143.103C752.678 143.603 754.478 146.303 757.678 153.103L749.678 161.603L730.178 182.603Z" fill="#2D6AB3"/>
<path d="M664.178 219.603L730.678 149.103C688.678 101.103 629.178 122.073 609.678 139.603C560.178 184.103 584.678 235.303 605.678 251.103C658.178 290.603 723.178 252.937 748.178 228.603L713.178 197.103C694.778 218.703 672.845 221.103 664.178 219.603Z" fill="#FFCC01"/>
<path d="M721.178 159.103C680.778 111.503 624.011 132.27 600.678 148.603C647.178 94.6034 716.178 122.603 730.678 149.103L721.178 159.103Z" fill="#C8A102"/>
<path d="M654.178 230.103L664.178 219.603H677.575L695.075 212L703.678 206.603L713.678 197.103L748.178 228.603L738.178 237.603L703.678 206.603C684.078 229.403 662.511 231.77 654.178 230.103Z" fill="#C8A102"/>
<path d="M685.178 163.603L635.178 220.603C629.178 220.603 606.178 186.603 629.178 163.603C652.178 140.603 677.178 154.27 685.178 163.603Z" fill="#2D6AB3"/>
<path d="M635.678 200.603C628.678 190.603 632.678 159.603 665.678 166.103L635.678 200.603Z" fill="black"/>
<path d="M660.178 172.603C647.378 169.003 640.178 172.103 638.178 174.103C645.378 163.303 659.511 164.27 665.678 166.103L660.178 172.603Z" fill="#7E8068"/>
<path d="M626.178 224.603C598.578 192.603 618.678 168.603 632.178 160.603C609.778 181.803 622.845 208.437 632.178 219.103L626.178 224.603Z" fill="#C8A102"/>
<path d="M470.002 97L489.502 87L464.502 134.5V105L470.002 97Z" fill="#17285E"/>
<path d="M376.502 397.5L358.002 188.5L377.502 178L397.002 386L376.502 397.5Z" fill="url(#paint7_linear_16_304)"/>
<path d="M358.002 188.5L339.002 193.5L359.502 181.5L377.502 178L358.002 188.5Z" fill="#0A589A"/>
<path d="M336.002 135L356.002 124L359.502 182L339.002 193.5L336.002 135Z" fill="url(#paint8_linear_16_304)"/>
<path d="M453.002 386.5L376.502 397.5L397.002 385.5L474.002 375.5L453.002 386.5Z" fill="#17285E"/>
<path d="M637.002 386.5L474.002 305.5V326.5L617.002 397L637.002 386.5Z" fill="#17285E"/>
<path d="M397.002 386.5C397.002 388.1 384.002 248.167 377.502 178L359.002 182L355.502 124L465.002 89V133.5L489.502 87L569.579 159.077L510.502 228L636.502 276V309V386.5L474.002 305.5V375.5C448.335 378.5 397.002 384.9 397.002 386.5Z" fill="#2D6AB3"/>
<path d="M377.502 156.5L396.002 152.5L414.002 363.5L456.002 357.5V273.5L616.502 353.5V289L478.002 235.5L544.502 164L496.502 119L447.502 188L443.502 119L377.502 138.5V156.5Z" fill="#FFCC01"/>
<path d="M434.002 128.5L377.502 145.5V138L443.502 119L447.502 188L438.502 200L434.002 128.5Z" fill="url(#paint9_linear_16_304)"/>
<path d="M469.002 245.5L478.002 235.5L616.502 289L607.002 300L469.002 245.5Z" fill="url(#paint10_linear_16_304)"/>
<path d="M535.502 173.5L489.002 130L496.502 119L544.502 164L535.502 173.5Z" fill="#C8A102"/>
<path d="M446.002 282.5V359L456.502 357.5L456.002 273.5L446.002 282.5Z" fill="#C8A102"/>
<path d="M607.002 300L606.502 348.5L616.502 354V289L607.002 300Z" fill="url(#paint11_linear_16_304)"/>
<path d="M425.132 302.782C425.132 348.345 380.181 398.782 332.132 398.782C258.133 398.782 240.132 337.782 249.132 295.782C255.025 268.282 296.132 223.748 338.132 220.282C397.431 215.387 425.132 257.218 425.132 302.782Z" fill="url(#paint12_linear_16_304)"/>
<path d="M440.501 288.891C440.501 334.454 395.55 384.891 347.501 384.891C273.501 384.891 255.501 323.891 264.501 281.891C270.394 254.391 311.501 209.858 353.501 206.391C412.8 201.496 440.501 243.327 440.501 288.891Z" fill="#3363AF"/>
<path d="M424.501 286.391C424.501 323.322 383.343 365.891 344.501 365.891C284.68 365.891 276.725 317.434 284.001 283.391C288.765 261.101 320.549 225.201 354.501 222.391C402.437 218.424 424.501 249.459 424.501 286.391Z" fill="#FFCC01"/>
<path d="M371.501 234.391C349.83 229.194 323.501 233 306.501 247C387.501 172 470.001 275.5 398.501 340.5C432.716 281.846 405.536 242.553 371.501 234.391Z" fill="#C8A102"/>
<path d="M364.501 239.391L357.501 248.391L350.001 249.391C346.13 254.23 345.631 259.682 347.455 264.5C351.287 274.618 365.369 281.936 380.001 274.891V262.391L389.001 253.391H390.501C390.501 259.058 388.401 271.291 380.001 274.891C365.369 281.936 351.287 274.618 347.455 264.5C344.304 264.5 338.801 262 342.001 252C345.201 242 358.334 239.427 364.501 239.391Z" fill="#C8A102"/>
<path d="M364.001 239.391C363.785 239.349 363.54 239.3 363.265 239.249C359.669 239.101 347.774 239.576 338.172 246.563C337.037 247.444 335.878 248.42 334.7 249.5C329.577 254.533 325.662 261.987 325.001 273C323.501 298 368.501 312 387.501 292.5C375.501 312.9 353.001 314.847 343.501 312.891C316.501 307.332 314.168 284.891 316.501 274.391C316.334 271.891 320.3 262.7 334.7 249.5C334.7 249.5 334.7 249.5 334.7 249.5C335.808 248.412 336.972 247.437 338.172 246.563C350.058 237.345 359.45 238.536 363.265 239.249C364.331 239.292 364.668 239.391 364.001 239.391Z" fill="#C8A102"/>
<path d="M340.001 298.891C302.358 270.404 342.001 231.891 365.001 239.391C345.501 242.891 340.001 267.041 357.501 274.391C382.501 284.891 390.834 264.724 390.501 253.391C411.501 298.891 358.501 312.891 340.001 298.891Z" fill="#2D6AB3"/>
<path d="M262.382 358.686L180.382 384.686L90.3823 185L70.3823 194.5L17.8823 103.686C67.8823 67.2857 118.716 53.8523 137.882 51.6857C175.716 42.6857 258.982 40.4857 289.382 103.686C319.782 166.886 265.049 226.686 233.882 248.686L262.382 358.686Z" fill="#2D6AB3"/>
<path d="M78.8823 167L46.3823 112C85.1823 85.2 127.549 74.1666 143.882 72C173.216 64.6666 239.582 62.9 270.382 114.5C301.182 166.1 235.549 224.667 198.882 247.5L226.382 348.5L193.382 359.5L101.382 156.5L78.8823 167Z" fill="#FFCC01"/>
<path d="M46.3823 112L48.3823 114.5C79.1823 95.7 114.882 85.1523 128.882 82.4856C153.049 75.9856 210.482 71.0856 246.882 103.486C283.282 135.886 265.716 183.167 251.382 203.5C302.382 145.5 270.216 107.5 250.882 92C191.282 40.8 88.8823 83 46.3823 112Z" fill="#C8A102"/>
<path d="M237.382 344.5L226.382 348.5L198.882 247.5L209.882 240L237.382 344.5Z" fill="#C8A102"/>
<path d="M90.3823 185L180.556 384.567L162.853 398.484L73.6511 202.634L90.3823 185Z" fill="url(#paint13_linear_16_304)"/>
<path d="M244.741 370.904L162.882 398.5L180.382 384.5L262.382 358.5L244.741 370.904Z" fill="#17285E"/>
<path d="M73.8823 202.5L55.8823 210.5L70.3823 194.5L90.3823 185L73.8823 202.5Z" fill="#0A589A"/>
<path d="M2.88232 119L18.0182 103.62L70.3822 194.5L55.8821 210.5L2.88232 119Z" fill="url(#paint14_linear_16_304)"/>
<path d="M174.882 139.587L199.382 215.587C235.382 192.787 238.716 167.57 235.882 157.736C223.082 122.536 189.882 130.921 174.882 139.587Z" fill="#2D6AB3"/>
<path d="M217.382 156.236C224.182 170.236 213.549 184.403 207.382 189.736L194.882 148.736C208.482 146.336 215.549 152.736 217.382 156.236Z" fill="black"/>
<path d="M194.882 148.643C228.082 143.443 223.382 177.587 207.382 190.087C215.147 181.087 217.982 155.343 196.382 154.143L194.882 148.643Z" fill="#7E8068"/>
<path d="M174.882 139.587L168.882 145.087L191.882 221.087L199.382 215.587L174.882 139.587Z" fill="#C8A102"/>
<defs>
<linearGradient id="paint0_linear_16_304" x1="1054.5" y1="98" x2="1133" y2="227" gradientUnits="userSpaceOnUse">
<stop stop-color="#0E4684"/>
<stop offset="1" stop-color="#17285E"/>
</linearGradient>
<linearGradient id="paint1_linear_16_304" x1="1054" y1="347" x2="1137" y2="215" gradientUnits="userSpaceOnUse">
<stop stop-color="#0E4684"/>
<stop offset="1" stop-color="#17285E"/>
</linearGradient>
<linearGradient id="paint2_linear_16_304" x1="878.942" y1="297.922" x2="1099.55" y2="383.451" gradientUnits="userSpaceOnUse">
<stop stop-color="#0E4684"/>
<stop offset="1" stop-color="#17285E"/>
</linearGradient>
<linearGradient id="paint3_linear_16_304" x1="676.928" y1="392.481" x2="663.481" y2="232.983" gradientUnits="userSpaceOnUse">
<stop stop-color="#17285E"/>
<stop offset="1" stop-color="#0E4684"/>
<stop offset="1" stop-color="#0E4684"/>
</linearGradient>
<linearGradient id="paint4_linear_16_304" x1="608.418" y1="87.336" x2="635.88" y2="244.203" gradientUnits="userSpaceOnUse">
<stop stop-color="#17285E"/>
<stop offset="1" stop-color="#0070B7"/>
</linearGradient>
<linearGradient id="paint5_linear_16_304" x1="570.504" y1="101.5" x2="656.504" y2="4.50001" gradientUnits="userSpaceOnUse">
<stop stop-color="#0E4684"/>
<stop offset="1" stop-color="#17285E"/>
</linearGradient>
<linearGradient id="paint6_linear_16_304" x1="529.504" y1="205" x2="750.504" y2="289.5" gradientUnits="userSpaceOnUse">
<stop stop-color="#0E4684"/>
<stop offset="1" stop-color="#17285E"/>
</linearGradient>
<linearGradient id="paint7_linear_16_304" x1="377.502" y1="178" x2="377.502" y2="397.5" gradientUnits="userSpaceOnUse">
<stop stop-color="#0E4684"/>
<stop offset="1" stop-color="#17285E"/>
</linearGradient>
<linearGradient id="paint8_linear_16_304" x1="347.752" y1="124" x2="347.752" y2="193.5" gradientUnits="userSpaceOnUse">
<stop stop-color="#17285E"/>
<stop offset="1" stop-color="#0070B7"/>
</linearGradient>
<linearGradient id="paint9_linear_16_304" x1="444.502" y1="139.5" x2="428.502" y2="124.5" gradientUnits="userSpaceOnUse">
<stop offset="0.640625" stop-color="#C8A102"/>
<stop offset="0.671875" stop-color="#303030" stop-opacity="0.65"/>
<stop offset="0.671975" stop-color="#3D392C" stop-opacity="0.681818"/>
<stop offset="0.672075" stop-color="#484228" stop-opacity="0.53"/>
<stop offset="0.729167" stop-color="#BC9802"/>
</linearGradient>
<linearGradient id="paint10_linear_16_304" x1="616.002" y1="298" x2="601.502" y2="284.5" gradientUnits="userSpaceOnUse">
<stop/>
<stop offset="0.432292" stop-color="#C8A102"/>
</linearGradient>
<linearGradient id="paint11_linear_16_304" x1="606.002" y1="291.5" x2="634.002" y2="320.5" gradientUnits="userSpaceOnUse">
<stop/>
<stop offset="0.0001"/>
<stop offset="0.213542" stop-color="#C8A102"/>
</linearGradient>
<linearGradient id="paint12_linear_16_304" x1="254.001" y1="276" x2="364.501" y2="392" gradientUnits="userSpaceOnUse">
<stop stop-color="#0E4684"/>
<stop offset="1" stop-color="#17285E"/>
<stop offset="1" stop-color="#17285E"/>
</linearGradient>
<linearGradient id="paint13_linear_16_304" x1="171.382" y1="393.5" x2="81.3824" y2="194" gradientUnits="userSpaceOnUse">
<stop stop-color="#17285E"/>
<stop offset="1" stop-color="#0E4684"/>
<stop offset="1" stop-color="#0E4684"/>
</linearGradient>
<linearGradient id="paint14_linear_16_304" x1="9.02493" y1="108.798" x2="64.666" y2="205.443" gradientUnits="userSpaceOnUse">
<stop stop-color="#17285E"/>
<stop offset="1" stop-color="#0070B7"/>
</linearGradient>
</defs>
</svg>
